<svg xmlns="http://www.w3.org/2000/svg" width="1200" height="900" viewBox="0 0 1200 900" role="img" aria-label="프로젝트 커버 플레이스홀더">
  <rect width="1200" height="900" fill="#F0F2F5"/>
  <!-- 전략 문서와 콘텐츠 캘린더 느낌의 구성 -->
  <rect x="150" y="160" width="560" height="580" rx="8" fill="#FFFFFF" stroke="#DDE1E7"/>
  <rect x="210" y="230" width="300" height="20" rx="4" fill="#DDE1E7"/>
  <rect x="210" y="280" width="440" height="1" fill="#DDE1E7"/>
  <rect x="210" y="320" width="420" height="12" rx="4" fill="#E8EBEF"/>
  <rect x="210" y="344" width="380" height="12" rx="4" fill="#E8EBEF"/>
  <rect x="210" y="368" width="400" height="12" rx="4" fill="#E8EBEF"/>
  <rect x="210" y="430" width="200" height="12" rx="4" fill="#DDE1E7"/>
  <rect x="210" y="470" width="440" height="1" fill="#DDE1E7"/>
  <rect x="210" y="500" width="130" height="90" rx="6" fill="#F0F2F5" stroke="#DDE1E7"/>
  <rect x="365" y="500" width="130" height="90" rx="6" fill="#F0F2F5" stroke="#DDE1E7"/>
  <rect x="520" y="500" width="130" height="90" rx="6" fill="#F0F2F5" stroke="#DDE1E7"/>
  <circle cx="222" cy="196" r="5" fill="#829487" opacity="0.7"/>
  <rect x="760" y="240" width="300" height="420" rx="8" fill="#FFFFFF" stroke="#C7CDD6"/>
  <rect x="800" y="300" width="140" height="16" rx="4" fill="#DDE1E7"/>
  <rect x="800" y="350" width="220" height="1" fill="#DDE1E7"/>
  <rect x="800" y="380" width="220" height="10" rx="4" fill="#E8EBEF"/>
  <rect x="800" y="404" width="180" height="10" rx="4" fill="#E8EBEF"/>
  <rect x="800" y="428" width="200" height="10" rx="4" fill="#E8EBEF"/>
  <rect x="800" y="480" width="90" height="30" rx="15" fill="#414965" opacity="0.8"/>
  <circle cx="816" cy="560" r="5" fill="#B96852" opacity="0.7"/>
  <text x="600" y="836" text-anchor="middle" font-family="system-ui, sans-serif" font-size="22" fill="#848B97">Project cover — 실제 이미지로 교체 예정</text>
</svg>
